# xmcd
#
# Track frame offsets:
#	150
#	14327
#	35479
#	44613
#	64058
#	90273
#	106970
#	123022
#	133937
#	149479
#	157787
#	172602
#	180738
#	199549
#	225464
#	243270
#	260242
#
# Disc length: 3740 seconds
#
# Revision: 1
# Processed by: cddbd v1.5.1PL2 Copyright (c) Steve Scherf et al.
# Submitted via: audiograbber 1.80
#
DISCID=db0e9a11
DTITLE=Blues con' Action - born to be blue
DYEAR=1900
DGENRE=
TTITLE0=In with the In-Crowd
TTITLE1=Home town Blues
TTITLE2=Mama Augistines'
TTITLE3=Evil ways
TTITLE4=Muddy water Blues
TTITLE5=Route 66
TTITLE6=Little Red Rooster
TTITLE7=Tip of your Tongue
TTITLE8=Song of War
TTITLE9=empty glasses
TTITLE10=Ballad in c-Minor
TTITLE11=#2
TTITLE12=Ballad of the Caveman
TTITLE13=Midnight Special
TTITLE14=Hit the Road Jack (Bonustrack)
TTITLE15=Folsom prison Blues (Bonustrack)
TTITLE16=still got the Blues (Bonustrack)
EXTD=Special Disc (Unplugged Live)
EXTT0=
EXTT1=
EXTT2=
EXTT3=
EXTT4=
EXTT5=
EXTT6=
EXTT7=
EXTT8=
EXTT9=
EXTT10=
EXTT11=
EXTT12=
EXTT13=
EXTT14=
EXTT15=
EXTT16=
PLAYORDER=
